<mxfile host="app.diagrams.net" agent="Mozilla/5.0 (Windows NT 10.0; Win64; x64) AppleWebKit/537.36 (KHTML, like Gecko) Chrome/135.0.0.0 Safari/537.36" version="26.2.3">
  <diagram name="Page-1" id="SBnBViiSTBzdjzmEXKp7">
    <mxGraphModel dx="870" dy="439" grid="1" gridSize="10" guides="1" tooltips="1" connect="1" arrows="1" fold="1" page="1" pageScale="1" pageWidth="850" pageHeight="1100" math="0" shadow="0">
      <root>
        <mxCell id="0" />
        <mxCell id="1" parent="0" />
        <mxCell id="2Y05R_hyc20w8xtrxxNE-1" value="Warehouse Manager" style="shape=umlActor;verticalLabelPosition=bottom;verticalAlign=top;html=1;outlineConnect=0;" vertex="1" parent="1">
          <mxGeometry x="70" y="80" width="30" height="60" as="geometry" />
        </mxCell>
        <mxCell id="2Y05R_hyc20w8xtrxxNE-2" value="" style="endArrow=none;html=1;rounded=0;" edge="1" parent="1">
          <mxGeometry width="50" height="50" relative="1" as="geometry">
            <mxPoint x="85" y="520" as="sourcePoint" />
            <mxPoint x="84.57999999999998" y="170" as="targetPoint" />
          </mxGeometry>
        </mxCell>
        <mxCell id="2Y05R_hyc20w8xtrxxNE-3" value="Bullseye Interface" style="rounded=0;whiteSpace=wrap;html=1;" vertex="1" parent="1">
          <mxGeometry x="200" y="90" width="110" height="40" as="geometry" />
        </mxCell>
        <mxCell id="2Y05R_hyc20w8xtrxxNE-4" value="Application" style="rounded=0;whiteSpace=wrap;html=1;" vertex="1" parent="1">
          <mxGeometry x="390" y="90" width="110" height="40" as="geometry" />
        </mxCell>
        <mxCell id="2Y05R_hyc20w8xtrxxNE-5" value="Supplier Database" style="rounded=0;whiteSpace=wrap;html=1;" vertex="1" parent="1">
          <mxGeometry x="580" y="90" width="110" height="40" as="geometry" />
        </mxCell>
        <mxCell id="2Y05R_hyc20w8xtrxxNE-6" value="" style="endArrow=none;html=1;rounded=0;" edge="1" parent="1">
          <mxGeometry width="50" height="50" relative="1" as="geometry">
            <mxPoint x="255" y="520" as="sourcePoint" />
            <mxPoint x="254.57999999999998" y="170" as="targetPoint" />
          </mxGeometry>
        </mxCell>
        <mxCell id="2Y05R_hyc20w8xtrxxNE-7" value="" style="endArrow=none;html=1;rounded=0;" edge="1" parent="1">
          <mxGeometry width="50" height="50" relative="1" as="geometry">
            <mxPoint x="445" y="520" as="sourcePoint" />
            <mxPoint x="444.58" y="170" as="targetPoint" />
          </mxGeometry>
        </mxCell>
        <mxCell id="2Y05R_hyc20w8xtrxxNE-8" value="" style="endArrow=none;html=1;rounded=0;" edge="1" parent="1">
          <mxGeometry width="50" height="50" relative="1" as="geometry">
            <mxPoint x="635" y="520" as="sourcePoint" />
            <mxPoint x="634.5799999999999" y="170" as="targetPoint" />
          </mxGeometry>
        </mxCell>
        <mxCell id="2Y05R_hyc20w8xtrxxNE-9" value="User Login" style="endArrow=classic;html=1;rounded=0;" edge="1" parent="1">
          <mxGeometry width="50" height="50" relative="1" as="geometry">
            <mxPoint x="80" y="200" as="sourcePoint" />
            <mxPoint x="250" y="200" as="targetPoint" />
          </mxGeometry>
        </mxCell>
        <mxCell id="2Y05R_hyc20w8xtrxxNE-10" value="Logged In" style="endArrow=classic;html=1;rounded=0;" edge="1" parent="1">
          <mxGeometry width="50" height="50" relative="1" as="geometry">
            <mxPoint x="250" y="220" as="sourcePoint" />
            <mxPoint x="80" y="220" as="targetPoint" />
          </mxGeometry>
        </mxCell>
        <mxCell id="2Y05R_hyc20w8xtrxxNE-11" value="Get Login" style="endArrow=classic;html=1;rounded=0;" edge="1" parent="1">
          <mxGeometry width="50" height="50" relative="1" as="geometry">
            <mxPoint x="255" y="200" as="sourcePoint" />
            <mxPoint x="440" y="200" as="targetPoint" />
          </mxGeometry>
        </mxCell>
        <mxCell id="2Y05R_hyc20w8xtrxxNE-12" value="Send Approval" style="endArrow=classic;html=1;rounded=0;" edge="1" parent="1">
          <mxGeometry width="50" height="50" relative="1" as="geometry">
            <mxPoint x="440" y="220" as="sourcePoint" />
            <mxPoint x="260" y="220" as="targetPoint" />
          </mxGeometry>
        </mxCell>
        <mxCell id="2Y05R_hyc20w8xtrxxNE-13" value="View Current Order" style="endArrow=classic;html=1;rounded=0;" edge="1" parent="1">
          <mxGeometry width="50" height="50" relative="1" as="geometry">
            <mxPoint x="80" y="260" as="sourcePoint" />
            <mxPoint x="250" y="260" as="targetPoint" />
          </mxGeometry>
        </mxCell>
        <mxCell id="2Y05R_hyc20w8xtrxxNE-14" value="Get Automatic Order" style="endArrow=classic;html=1;rounded=0;" edge="1" parent="1">
          <mxGeometry width="50" height="50" relative="1" as="geometry">
            <mxPoint x="250" y="260" as="sourcePoint" />
            <mxPoint x="435" y="260" as="targetPoint" />
          </mxGeometry>
        </mxCell>
        <mxCell id="2Y05R_hyc20w8xtrxxNE-15" value="Send Order" style="endArrow=classic;html=1;rounded=0;" edge="1" parent="1">
          <mxGeometry width="50" height="50" relative="1" as="geometry">
            <mxPoint x="440" y="280" as="sourcePoint" />
            <mxPoint x="260" y="280" as="targetPoint" />
          </mxGeometry>
        </mxCell>
        <mxCell id="2Y05R_hyc20w8xtrxxNE-16" value="Automatic Order info" style="endArrow=classic;html=1;rounded=0;" edge="1" parent="1">
          <mxGeometry width="50" height="50" relative="1" as="geometry">
            <mxPoint x="250" y="280" as="sourcePoint" />
            <mxPoint x="80" y="280" as="targetPoint" />
          </mxGeometry>
        </mxCell>
        <mxCell id="2Y05R_hyc20w8xtrxxNE-17" value="Check Supplier Items" style="endArrow=classic;html=1;rounded=0;" edge="1" parent="1">
          <mxGeometry width="50" height="50" relative="1" as="geometry">
            <mxPoint x="80" y="320" as="sourcePoint" />
            <mxPoint x="250" y="320" as="targetPoint" />
          </mxGeometry>
        </mxCell>
        <mxCell id="2Y05R_hyc20w8xtrxxNE-18" value="Get List of Supplier Items" style="endArrow=classic;html=1;rounded=0;" edge="1" parent="1">
          <mxGeometry width="50" height="50" relative="1" as="geometry">
            <mxPoint x="260" y="320" as="sourcePoint" />
            <mxPoint x="445" y="320" as="targetPoint" />
          </mxGeometry>
        </mxCell>
        <mxCell id="2Y05R_hyc20w8xtrxxNE-19" value="Query Database to get List" style="endArrow=classic;html=1;rounded=0;" edge="1" parent="1">
          <mxGeometry width="50" height="50" relative="1" as="geometry">
            <mxPoint x="450" y="320" as="sourcePoint" />
            <mxPoint x="630" y="320" as="targetPoint" />
          </mxGeometry>
        </mxCell>
        <mxCell id="2Y05R_hyc20w8xtrxxNE-20" value="Send back List of items" style="endArrow=classic;html=1;rounded=0;" edge="1" parent="1">
          <mxGeometry width="50" height="50" relative="1" as="geometry">
            <mxPoint x="630" y="340" as="sourcePoint" />
            <mxPoint x="450" y="340" as="targetPoint" />
          </mxGeometry>
        </mxCell>
        <mxCell id="2Y05R_hyc20w8xtrxxNE-22" value="Query Results" style="endArrow=classic;html=1;rounded=0;" edge="1" parent="1">
          <mxGeometry width="50" height="50" relative="1" as="geometry">
            <mxPoint x="440" y="340" as="sourcePoint" />
            <mxPoint x="260" y="340" as="targetPoint" />
          </mxGeometry>
        </mxCell>
        <mxCell id="2Y05R_hyc20w8xtrxxNE-23" value="List of available items" style="endArrow=classic;html=1;rounded=0;" edge="1" parent="1">
          <mxGeometry width="50" height="50" relative="1" as="geometry">
            <mxPoint x="250" y="340" as="sourcePoint" />
            <mxPoint x="80" y="340" as="targetPoint" />
          </mxGeometry>
        </mxCell>
        <mxCell id="2Y05R_hyc20w8xtrxxNE-24" value="View Item Info" style="endArrow=classic;html=1;rounded=0;" edge="1" parent="1">
          <mxGeometry width="50" height="50" relative="1" as="geometry">
            <mxPoint x="80" y="380" as="sourcePoint" />
            <mxPoint x="250" y="380" as="targetPoint" />
          </mxGeometry>
        </mxCell>
        <mxCell id="2Y05R_hyc20w8xtrxxNE-25" value="Info on desired Item" style="endArrow=classic;html=1;rounded=0;" edge="1" parent="1">
          <mxGeometry width="50" height="50" relative="1" as="geometry">
            <mxPoint x="260" y="380" as="sourcePoint" />
            <mxPoint x="445" y="380" as="targetPoint" />
          </mxGeometry>
        </mxCell>
        <mxCell id="2Y05R_hyc20w8xtrxxNE-26" value="Get Info on desired Item" style="endArrow=classic;html=1;rounded=0;" edge="1" parent="1">
          <mxGeometry width="50" height="50" relative="1" as="geometry">
            <mxPoint x="450" y="380" as="sourcePoint" />
            <mxPoint x="630" y="380" as="targetPoint" />
          </mxGeometry>
        </mxCell>
        <mxCell id="2Y05R_hyc20w8xtrxxNE-27" value="Send back details" style="endArrow=classic;html=1;rounded=0;" edge="1" parent="1">
          <mxGeometry width="50" height="50" relative="1" as="geometry">
            <mxPoint x="630" y="400" as="sourcePoint" />
            <mxPoint x="450" y="400" as="targetPoint" />
          </mxGeometry>
        </mxCell>
        <mxCell id="2Y05R_hyc20w8xtrxxNE-28" value="Send back details" style="endArrow=classic;html=1;rounded=0;" edge="1" parent="1">
          <mxGeometry width="50" height="50" relative="1" as="geometry">
            <mxPoint x="440" y="400" as="sourcePoint" />
            <mxPoint x="260" y="400" as="targetPoint" />
          </mxGeometry>
        </mxCell>
        <mxCell id="2Y05R_hyc20w8xtrxxNE-29" value="Information of specific item" style="endArrow=classic;html=1;rounded=0;" edge="1" parent="1">
          <mxGeometry width="50" height="50" relative="1" as="geometry">
            <mxPoint x="250" y="400" as="sourcePoint" />
            <mxPoint x="80" y="400" as="targetPoint" />
          </mxGeometry>
        </mxCell>
        <mxCell id="2Y05R_hyc20w8xtrxxNE-30" value="Add items to Order" style="endArrow=classic;html=1;rounded=0;" edge="1" parent="1">
          <mxGeometry width="50" height="50" relative="1" as="geometry">
            <mxPoint x="80" y="440" as="sourcePoint" />
            <mxPoint x="250" y="440" as="targetPoint" />
          </mxGeometry>
        </mxCell>
        <mxCell id="2Y05R_hyc20w8xtrxxNE-31" value="Send query to check stock" style="endArrow=classic;html=1;rounded=0;" edge="1" parent="1">
          <mxGeometry width="50" height="50" relative="1" as="geometry">
            <mxPoint x="260" y="440" as="sourcePoint" />
            <mxPoint x="445" y="440" as="targetPoint" />
          </mxGeometry>
        </mxCell>
        <mxCell id="2Y05R_hyc20w8xtrxxNE-32" value="Check availability" style="endArrow=classic;html=1;rounded=0;" edge="1" parent="1">
          <mxGeometry width="50" height="50" relative="1" as="geometry">
            <mxPoint x="450" y="440" as="sourcePoint" />
            <mxPoint x="630" y="440" as="targetPoint" />
          </mxGeometry>
        </mxCell>
        <mxCell id="2Y05R_hyc20w8xtrxxNE-33" value="Add Items if available" style="endArrow=classic;html=1;rounded=0;" edge="1" parent="1">
          <mxGeometry width="50" height="50" relative="1" as="geometry">
            <mxPoint x="630" y="460" as="sourcePoint" />
            <mxPoint x="450" y="460" as="targetPoint" />
          </mxGeometry>
        </mxCell>
        <mxCell id="2Y05R_hyc20w8xtrxxNE-35" value="Send back confirmation" style="endArrow=classic;html=1;rounded=0;" edge="1" parent="1">
          <mxGeometry width="50" height="50" relative="1" as="geometry">
            <mxPoint x="440" y="460" as="sourcePoint" />
            <mxPoint x="260" y="460" as="targetPoint" />
          </mxGeometry>
        </mxCell>
        <mxCell id="2Y05R_hyc20w8xtrxxNE-36" value="Inform user of result" style="endArrow=classic;html=1;rounded=0;" edge="1" parent="1">
          <mxGeometry width="50" height="50" relative="1" as="geometry">
            <mxPoint x="250" y="460" as="sourcePoint" />
            <mxPoint x="80" y="460" as="targetPoint" />
          </mxGeometry>
        </mxCell>
      </root>
    </mxGraphModel>
  </diagram>
</mxfile>
